# xmcd CD database file
#
# Track frame offsets:
#	150
#	3984
#	20400
#	36660
#	54580
#	71316
#	89006
#	109517
#	125857
#	144918
#	170828
#	190189
#	209855
#
# Disc length: 3204 seconds
#
# Revision: 0
# Processed by: cddbd v1.5.1PL0 Copyright (c) Steve Scherf et al.
# Submitted via: CDex 1.51
#
DISCID=c20c820d
DTITLE=Hellion Sounds - The Sentence oh Death
DYEAR=2004
DGENRE=Rock
TTITLE0=Introduction
TTITLE1=The Decisive Battle from FINAL FANTASY ?
TTITLE2=The Man With Machine Gun from FINAL FANTASY ?
TTITLE3=更に闘う者達 from FINAL FANTASY ?
TTITLE4=Battle Scene 2 from FINAL FANTASY ?
TTITLE5=Battle Scene 1 from FINAL FANTASY ?
TTITLE6=ビッグブリッヂの死闘 from FINAL FANTASY ?
TTITLE7=Battle 2 from FINAL FANTASY ?
TTITLE8=J-E-N-O-V-A from FINAL FANTASY ?
TTITLE9=神の誕生 from FINAL FANTASY ?
TTITLE10=Battle 1 from FINAL FANTASY USA
TTITLE11=決戦 from FINAL FANTASY ?
TTITLE12=妖星乱舞 from FINAL FANTASY ?
EXTD=YEAR: 2004
EXTT0=
EXTT1=
EXTT2=
EXTT3=
EXTT4=
EXTT5=
EXTT6=
EXTT7=
EXTT8=
EXTT9=
EXTT10=
EXTT11=
EXTT12=
PLAYORDER=
